<svg xmlns="http://www.w3.org/2000/svg" aria-hidden="true" style="position:absolute;width:0;height:0;overflow:hidden"><defs><symbol id="icon-caret" viewBox="0 0 32 32"><path d="M16 0c8.837 0 16 7.163 16 16s-7.163 16-16 16S0 24.837 0 16 7.163 0 16 0"/><path stroke-linecap="round" stroke-linejoin="round" stroke-width="1.333" d="M9.333 12.667 16 19.334l6.667-6.667"/></symbol><symbol id="icon-close" viewBox="0 0 32 32"><path fill="none" stroke="#e9f2f8" stroke-linecap="square" stroke-linejoin="round" stroke-width="1.333" d="M10.667 10.667 16 16m0 0-5.333 5.333M16 16l5.333 5.333M16 16l5.333-5.333" style="stroke:var(--color1, #e9f2f8)"/></symbol><symbol id="icon-email" viewBox="0 0 32 32"><path fill="#ee2e28" d="m23.462 1.109-4.875 1.625v13.874l.875-.219V5.915l4-1.25zm3.618 6.785-6.494 1.623v7.75l-3.125.781v-7.75l-4.507 1.127c.323.247.607.551.845.895.634.916 1.018 2.105 1.277 3.397.461 2.306.504 4.924.508 6.891l14.876-3.719c-.003-1.982-.036-4.696-.487-6.951-.241-1.207-.608-2.269-1.098-2.977-.479-.692-1.013-1.05-1.794-1.067zm-16.056 3.997c-.836 0-1.388.326-1.869.94s-.842 1.542-1.082 2.619q-.079.36-.14.722l5.819-1.164a10 10 0 0 0-.181-.589l-.001-.003-.002-.007a6 6 0 0 0-.093-.256l-.009-.025a8 8 0 0 0-.1-.251l-.009-.02a6 6 0 0 0-.097-.214l-.024-.052-.032-.066-.054-.105-.016-.031-.075-.134-.023-.038a4 4 0 0 0-.163-.257c-.491-.709-1.037-1.07-1.85-1.07zm1.644 4.482L7.185 17.47l2.741.933zm1.439.334-3.985 2.951-4.535-1.544v4.271l8.85-1.526c-.035-1.342-.122-2.803-.33-4.151zm.347 5.29-2.33.402 2.334.292-.004-.693zm8.008.052-1.875.469v8.373h1.875zM8.313 23.056l-3.851.664v-.413c-.902.284-1.691.681-2.217 1.09-.496.386-.7.773-.705.905-.002.066-.001.093.081.178.078.082.257.198.551.301 4.973.816 7.751-.479 10.959-2.123z" style="fill:var(--color2, #ee2e28)"/></symbol><symbol id="icon-menu" viewBox="0 0 32 32"><path fill="none" stroke="#e9f2f8" stroke-linecap="square" stroke-width="1.333" d="M8 10.667h14.667M8 21.333h14.667M8 16h14.667" style="stroke:var(--color1, #e9f2f8)"/></symbol><symbol id="icon-playstore" viewBox="0 0 131 32"><path fill="#eb4335" d="M13.447 15.283.123 29.342q0 .003.003.007A3.59 3.59 0 0 0 3.601 32a3.6 3.6 0 0 0 1.826-.493l.043-.025 14.998-8.603-7.019-7.597z" style="fill:var(--color3, #eb4335)"/><path fill="#fabc13" d="m26.927 12.889-.012-.009-6.475-3.732-7.295 6.453 7.32 7.276 6.441-3.694a3.57 3.57 0 0 0 .022-6.294z" style="fill:var(--color4, #fabc13)"/><path fill="#547dbf" d="M.123 2.659Q.002 3.1 0 3.58v24.841q0 .48.123.921l13.782-13.699z" style="fill:var(--color5, #547dbf)"/><path fill="#30a851" d="m13.545 15.999 6.897-6.854L5.461.511A3.6 3.6 0 0 0 3.601 0 3.6 3.6 0 0 0 .123 2.655v.004z" style="fill:var(--color6, #30a851)"/><path fill="#e9f2f8" d="M46.522 3.889a2.2 2.2 0 0 0-.761-.492 2.5 2.5 0 0 0-.928-.174q-.504 0-.928.178-.42.179-.728.509a2.4 2.4 0 0 0-.474.785q-.166.454-.166 1.001c0 .547.055.7.166 1.006q.167.459.47.793a2.15 2.15 0 0 0 1.643.7q.45 0 .828-.149c.378-.149.474-.24.666-.424s.347-.405.466-.662q.179-.386.229-.853h-2.126v-.726h2.937l.025.348q0 .726-.22 1.328c-.22.602-.356.75-.628 1.044a2.8 2.8 0 0 1-.961.679 3.1 3.1 0 0 1-1.223.238 3.3 3.3 0 0 1-1.277-.246 3.2 3.2 0 0 1-1.019-.696 3.3 3.3 0 0 1-.674-1.052 3.5 3.5 0 0 1-.237-1.307q0-.713.241-1.315.242-.607.674-1.057.436-.45 1.023-.696.587-.25 1.277-.25.654 0 1.244.229a3.3 3.3 0 0 1 1.057.658l-.595.603zm1.91 5.003V2.527h3.89v.823h-2.975v1.905h2.804v.823h-2.804v1.99h3.016v.823h-3.932zm7.144 0h-.915V3.35H52.71v-.823h4.818v.823h-1.951zm4.024 0V2.527h.915v6.365zm4.165 0h-.915V3.35h-1.951v-.823h4.818v.823h-1.951zm7.015.128q-.704 0-1.302-.246a3.1 3.1 0 0 1-1.036-.692 3.2 3.2 0 0 1-.678-1.052 3.5 3.5 0 0 1-.241-1.32q0-.717.241-1.32.241-.607.678-1.052a3.1 3.1 0 0 1 1.036-.692A3.4 3.4 0 0 1 70.78 2.4q.707 0 1.298.246.595.246 1.032.692.442.446.682 1.052.241.603.241 1.32 0 .712-.241 1.32a3.2 3.2 0 0 1-.682 1.052 3.1 3.1 0 0 1-1.032.692 3.4 3.4 0 0 1-1.298.246m0-.824q.5 0 .924-.187c.424-.187.528-.298.736-.522q.312-.339.483-.789.174-.454.175-.989c.001-.535-.058-.686-.175-.989a2.4 2.4 0 0 0-.483-.789 2.1 2.1 0 0 0-.736-.522q-.424-.187-.924-.187c-.5 0-.641.062-.924.187q-.42.183-.736.522-.312.335-.487.789c-.175.454-.175.632-.175.989q0 .534.175.989c.175.455.279.567.487.793q.316.335.736.522.424.183.924.182zm9.358.696h-1.007l-3.586-4.914v4.914h-.915V2.527h1.007l3.586 4.918V2.527h.915zm-28.603 6.527a4 4 0 0 0-1.415-.925 4.7 4.7 0 0 0-1.739-.322q-.94 0-1.722.331a3.85 3.85 0 0 0-1.34.951 4.3 4.3 0 0 0-.874 1.46 5.4 5.4 0 0 0-.308 1.867q0 1.035.308 1.901.316.857.882 1.485.575.628 1.356.968c.781.34 1.096.339 1.722.339q.816 0 1.498-.255a3.6 3.6 0 0 0 1.198-.747q.524-.492.857-1.18c.333-.688.369-.968.441-1.528h-3.944v-1.731h5.883l.058.849q0 1.451-.441 2.656a6.1 6.1 0 0 1-1.24 2.079q-.807.875-1.914 1.349c-1.107.474-1.553.475-2.446.475a6.5 6.5 0 0 1-2.563-.501 6.4 6.4 0 0 1-2.055-1.392 6.5 6.5 0 0 1-1.365-2.105 7 7 0 0 1-.483-2.622q0-1.408.483-2.614a6.6 6.6 0 0 1 1.356-2.113 6.1 6.1 0 0 1 2.047-1.392 6.5 6.5 0 0 1 2.555-.501q1.306 0 2.496.458a6.7 6.7 0 0 1 2.139 1.315l-1.431 1.443zm7.781 9.938q-1.264 0-2.272-.577a4.3 4.3 0 0 1-1.581-1.57q-.574-1.002-.574-2.266c0-1.264.191-1.596.574-2.257a4.27 4.27 0 0 1 1.581-1.579q1.006-.577 2.272-.577 1.273 0 2.272.577c.999.577 1.187.911 1.564 1.579q.574.993.574 2.257c0 1.264-.191 1.598-.574 2.266q-.566.993-1.564 1.57c-.998.577-1.423.577-2.272.577m-.008-1.876q.666 0 1.19-.331c.524-.331.624-.523.824-.908q.308-.577.308-1.307 0-.722-.308-1.29-.3-.577-.824-.908c-.524-.331-.746-.331-1.19-.331q-.657 0-1.19.331-.525.331-.832.908-.3.569-.3 1.29 0 .73.3 1.307.308.577.832.908.533.331 1.19.331m9.245 1.876q-1.264 0-2.272-.577a4.3 4.3 0 0 1-1.581-1.57q-.574-1.002-.574-2.266c0-1.264.191-1.596.574-2.257a4.27 4.27 0 0 1 1.581-1.579q1.006-.577 2.272-.577 1.273 0 2.272.577c.999.577 1.187.911 1.564 1.579q.574.993.574 2.257c0 1.264-.191 1.598-.574 2.266q-.566.993-1.564 1.57c-.998.577-1.423.577-2.272.577m-.008-1.876q.666 0 1.19-.331c.524-.331.624-.523.824-.908q.308-.577.308-1.307 0-.722-.308-1.29-.3-.577-.824-.908c-.524-.331-.746-.331-1.19-.331q-.657 0-1.19.331a2.37 2.37 0 0 0-.832.908q-.3.569-.3 1.29 0 .73.3 1.307.308.577.832.908.533.331 1.19.331m8.838 1.774q-1.157 0-2.064-.569c-.907-.569-1.082-.897-1.431-1.553q-.524-.993-.524-2.24 0-1.255.524-2.241c.524-.986.827-1.174 1.431-1.553q.908-.569 2.064-.569.907 0 1.673.356c.766.356.943.569 1.298.993l.1-1.18h1.797v8.258q0 1.409-.59 2.453a4 4 0 0 1-1.648 1.612q-1.065.577-2.521.577-2.022 0-3.62-1.315l.84-1.706q1.114 1.146 2.646 1.146.865 0 1.498-.356.64-.348.99-.993.358-.636.358-1.494v-.815q-.532.56-1.257.874c-.725.314-1.004.314-1.564.314zm.449-1.859q.657 0 1.19-.297.541-.306.857-.832.325-.526.325-1.197v-.373q0-.67-.325-1.188a2.27 2.27 0 0 0-.857-.815 2.4 2.4 0 0 0-1.19-.306q-.683 0-1.223.331a2.34 2.34 0 0 0-.857.891q-.308.568-.308 1.282c0 .714.103.902.308 1.281q.316.569.857.9.541.322 1.223.322zm8.055 1.791h-2.188v-12.73h2.188zm9.088-.985q-1.556 1.155-3.404 1.154-1.339 0-2.405-.594c-1.066-.594-1.273-.936-1.689-1.621q-.615-1.027-.616-2.325 0-1.23.558-2.198a4.16 4.16 0 0 1 1.539-1.528q.983-.56 2.214-.56 1.281 0 2.247.62.974.61 1.514 1.706.54 1.086.541 2.529v.272h-6.407q.149.577.524 1.018.382.441.949.687c.567.246.802.246 1.273.246q1.332 0 2.463-.883zm-5.991-3.768h4.593a2.44 2.44 0 0 0-.382-1.112 2.1 2.1 0 0 0-.807-.738 2.25 2.25 0 0 0-1.107-.272q-.624 0-1.114.272c-.49.272-.594.433-.799.755a2.54 2.54 0 0 0-.382 1.095zm10.743 4.753v-12.73h4.128q1.563 0 2.687.509 1.131.509 1.731 1.451.607.942.607 2.249 0 1.299-.607 2.249-.6.95-1.722 1.468-1.124.509-2.68.509h-1.947v4.294h-2.197zm2.197-6.255h1.723q1.439 0 2.213-.594.774-.603.774-1.672c0-1.069-.261-1.265-.782-1.655q-.774-.585-2.205-.586h-1.723zm10.327 6.255h-2.188v-12.73h2.188zm8.73 0H119.2l-.116-1.044a3.2 3.2 0 0 1-1.14.9q-.683.314-1.514.314-.883 0-1.573-.348a2.8 2.8 0 0 1-1.09-.967 2.5 2.5 0 0 1-.391-1.392q0-.823.425-1.443a2.9 2.9 0 0 1 1.173-.984q.75-.357 1.706-.356.582 0 1.165.136.59.136 1.09.382v-.272q0-.56-.3-.968c-.3-.408-.469-.481-.807-.628a2.7 2.7 0 0 0-1.14-.229q-.574 0-1.148.204-.575.195-1.074.586l-.582-1.638a7.2 7.2 0 0 1 1.631-.679 6.2 6.2 0 0 1 1.639-.229q1.172 0 2.03.475a3.2 3.2 0 0 1 1.322 1.341q.475.866.474 2.045v4.795zm-4.127-1.511q.542 0 .998-.229a2 2 0 0 0 .758-.636q.3-.416.316-.951v-.093a3 3 0 0 0-.882-.441 3.2 3.2 0 0 0-.99-.161q-.766 0-1.257.356-.49.348-.49.917 0 .348.199.636.2.28.55.441.358.16.798.161m9.179 5.754h-2.189l1.731-4.277-4.127-8.453h2.305l2.796 6.068 2.462-6.068h2.189z" style="fill:var(--color1, #e9f2f8)"/></symbol></defs></svg>